#!OML:ASF E:\motion texture\Top Level 1\Subject 1\Session 1\male.ASF
:FULLY-SPECIFIED
:DEGREES
614
root -32.2745 17.843 3.58056 1277.79 -84.6221 -1279.28
lowerback 3.48163 -1.51117 -2.8464
upperback -1.48968 -2.13551 0.705281
thorax -3.35651 -0.993796 2.45579
lowerneck -20.3325 -1.67653 -3.93281
upperneck 17.7256 -2.4866 5.88833
head 9.03883 -0.802855 2.32972
rclavicle -3.96327e-015 2.38542e-015
rhumerus -40.0566 -0.634324 -80.1514
rradius 31.8463
rwrist 7.74167
rhand -14.9791 -12.3633
rfingers 7.12502
rthumb 11.1849 -42.0452
lclavicle -3.96327e-015 2.38542e-015
lhumerus -16.1903 -18.0875 94.0781
lradius 49.5784
lwrist 2.08295
lhand -14.5557 10.4781
lfingers 7.12502
lthumb 11.5933 40.1374
rfemur -46.8432 -6.0085 15.9542
rtibia 72.4371
rfoot 1089.21 -180.781
rtoes 16.4018
lfemur -7.81236 -6.11532 -26.1597
ltibia 24.1492
lfoot 1429.48 0.288558
ltoes 3.23632
615
root -32.3826 17.8793 3.57613 1283.42 -84.9778 -1285.15
lowerback 3.96532 -1.80326 -3.28536
upperback -1.44562 -2.56185 0.711923
thorax -3.53887 -1.19267 2.75138
lowerneck -20.4202 -1.52708 -3.87102
upperneck 17.7879 -2.25269 5.69054
head 9.05933 -0.708516 2.28411
rclavicle -1.6524e-015 0
rhumerus -41.2996 -1.13147 -79.0124
rradius 31.2462
rwrist 8.2878
rhand -14.9441 -11.9231
rfingers 7.12502
rthumb 11.2187 -41.6032
lclavicle -1.6524e-015 0
lhumerus -14.5345 -18.8169 93.6107
lradius 51.0203
lwrist 2.36084
lhand -14.3193 10.4469
lfingers 7.12502
lthumb 11.8212 40.0933
rfemur -50.1327 -6.59791 15.9051
rtibia 70.3018
rfoot 1089.03 -181.165
rtoes 17.1761
lfemur -6.61491 -6.51565 -26.7803
ltibia 23.1537
lfoot 1429.57 0.207952
ltoes 3.28606
616
root -32.492 17.9119 3.56849 1288.82 -85.3352 -1290.77
lowerback 4.42896 -2.08999 -3.65065
upperback -1.39861 -2.9793 0.75654
thorax -3.70257 -1.38804 3.04813
lowerneck -20.5238 -1.38267 -3.80673
upperneck 17.8218 -2.02643 5.50243
head 9.07408 -0.616482 2.24016
rclavicle 4.37326e-015 4.77083e-015
rhumerus -42.5684 -1.45853 -77.9067
rradius 30.8393
rwrist 8.52099
rhand -14.841 -11.5398
rfingers 7.12502
rthumb 11.3181 -41.2144
lclavicle 4.37326e-015 4.77083e-015
lhumerus -12.8824 -19.4391 93.0742
lradius 52.4872
lwrist 2.67207
lhand -14.1387 10.3964
lfingers 7.12502
lthumb 11.9953 40.0327
rfemur -53.3777 -7.12147 16.0027
rtibia 68.4585
rfoot 1088.87 -181.456
rtoes 17.9193
lfemur -5.47131 -6.81966 -27.2269
ltibia 22.2187
lfoot 1429.65 -0.00789901
ltoes 3.33455
617
root -32.6035 17.94 3.55821 1293.91 -85.6979 -1296.06
lowerback 4.86195 -2.36642 -3.93006
upperback -1.34694 -3.37862 0.832634
thorax -3.84248 -1.57614 3.33076
lowerneck -20.6234 -1.24644 -3.74176
upperneck 17.8174 -1.81391 5.33195
head 9.07648 -0.529146 2.1999
rclavicle 4.28008e-014 7.95139e-016
rhumerus -43.8552 -1.64814 -76.84
rradius 30.5913
rwrist 8.51219
rhand -14.6713 -11.2582
rfingers 7.12502
rthumb 11.4818 -40.9238
lclavicle 4.28008e-014 7.95139e-016
lhumerus -11.2288 -19.982 92.4699
lradius 53.9626
lwrist 3.05264
lhand -13.9852 10.3567
lfingers 7.12502
lthumb 12.1434 39.9842
rfemur -56.5649 -7.56288 16.2299
rtibia 66.9044
rfoot 1088.73 -181.667
rtoes 18.6499
lfemur -4.36831 -7.0514 -27.5106
ltibia 21.3337
lfoot 1429.73 -0.311075
ltoes 3.36889
618
root -32.7173 17.9638 3.54602 1298.66 -86.0686 -1301
lowerback 5.25607 -2.62723 -4.11685
upperback -1.29784 -3.75059 0.935454
thorax -3.96436 -1.75265 3.589
lowerneck -20.6973 -1.1228 -3.68409
upperneck 17.7718 -1.62069 5.18361
head 9.06187 -0.449431 2.16533
rclavicle -4.90004e-014 -4.77083e-015
rhumerus -45.1649 -1.74505 -75.797
rradius 30.4631
rwrist 8.36158
rhand -14.4898 -11.0026
rfingers 7.12502
rthumb 11.6568 -40.6583
lclavicle -4.90004e-014 -4.77083e-015
lhumerus -9.58791 -20.4587 91.8168
lradius 55.4288
lwrist 3.50386
lhand -13.8611 10.304
lfingers 7.12502
lthumb 12.263 39.9244
rfemur -59.6902 -7.91423 16.5671
rtibia 65.6329
rfoot 1088.61 -181.801
rtoes 19.3634
lfemur -3.30063 -7.24677 -27.6535
ltibia 20.4858
lfoot 1429.79 -0.639064
ltoes 3.35442
619
root -32.8335 17.9838 3.53274 1303.32 -86.4362 -1305.8
lowerback 5.59363 -2.87007 -4.22687
upperback -1.25139 -4.09138 1.05473
thorax -4.05995 -1.91588 3.81882
lowerneck -20.7573 -1.01129 -3.63273
upperneck 17.6957 -1.44581 5.05364
head 9.03584 -0.376941 2.13523
rclavicle 2.99171e-014 -1.19271e-014
rhumerus -46.4791 -1.77681 -74.7736
rradius 30.4232
rwrist 8.15738
rhand -14.3178 -10.7845
rfingers 7.12502
rthumb 11.8226 -40.4308
lclavicle 2.99171e-014 -1.19271e-014
lhumerus -7.9536 -20.8697 91.1216
lradius 56.8761
lwrist 3.99028
lhand -13.7457 10.2491
lfingers 7.12502
lthumb 12.3743 39.8629
rfemur -62.758 -8.17889 16.9698
rtibia 64.6342
rfoot 1088.5 -181.863
rtoes 19.9919
lfemur -2.29563 -7.41477 -27.6988
ltibia 19.703
lfoot 1429.81 -0.956817
ltoes 3.28746
620
root -32.952 18.0001 3.51909 1307.92 -86.7843 -1310.52
lowerback 5.87024 -3.09024 -4.27109
upperback -1.21305 -4.39486 1.18172
thorax -4.13443 -2.06258 4.01572
lowerneck -20.8085 -0.914348 -3.5872
upperneck 17.6021 -1.29304 4.94068
head 9.00386 -0.31345 2.10871
rclavicle 2.01269e-014 1.27222e-014
rhumerus -47.7895 -1.78409 -73.7544
rradius 30.4364
rwrist 7.98245
rhand -14.1408 -10.611
rfingers 7.12502
rthumb 11.9933 -40.2474
lclavicle 2.01269e-014 1.27222e-014
lhumerus -6.32408 -21.2298 90.3882
lradius 58.2877
lwrist 4.49883
lhand -13.6526 10.1859
lfingers 7.12502
lthumb 12.4641 39.7942
rfemur -65.7711 -8.35352 17.4061
rtibia 63.8917
rfoot 1088.44 -181.859
rtoes 20.5297
lfemur -1.3526 -7.58658 -27.6867
ltibia 18.9754
lfoot 1429.8 -1.20238
ltoes 3.18297
621
root -33.0726 18.0146 3.50506 1312.52 -87.1099 -1315.22
lowerback 6.1238 -3.28452 -4.26509
upperback -1.17572 -4.659 1.31199
thorax -4.20248 -2.19114 4.18511
lowerneck -20.8441 -0.831201 -3.54659
upperneck 17.4991 -1.16017 4.83576
head 8.96718 -0.258949 2.08286
rclavicle -1.55797e-014 -1.66979e-014
rhumerus -49.0891 -1.78264 -72.7317
rradius 30.4724
rwrist 7.86895
rhand -13.969 -10.4669
rfingers 7.12502
rthumb 12.159 -40.0935
lclavicle -1.55797e-014 -1.66979e-014
lhumerus -4.70607 -21.5409 89.6298
lradius 59.6531
lwrist 4.98717
lhand -13.5787 10.121
lfingers 7.12502
lthumb 12.5353 39.725
rfemur -68.6666 -8.44057 17.8504
rtibia 63.4124
rfoot 1088.42 -181.795
rtoes 20.9765
lfemur -0.429097 -7.7644 -27.6411
ltibia 18.3024
lfoot 1429.75 -1.35973
ltoes 3.02361
622
root -33.195 18.0271 3.49196 1317.96 -87.3771 -1320.74
lowerback 6.33355 -3.45856 -4.25129
upperback -1.15303 -4.89432 1.429
thorax -4.26449 -2.30567 4.33291
lowerneck -20.8631 -0.759878 -3.51586
upperneck 17.3957 -1.04402 4.74185
head 8.9286 -0.211979 2.06008
rclavicle 2.68856e-014 1.27222e-014
rhumerus -50.3697 -1.78338 -71.6977
rradius 30.5058
rwrist 7.82253
rhand -13.774 -10.3531
rfingers 7.12502
rthumb 12.347 -39.9685
lclavicle 2.68856e-014 1.27222e-014
lhumerus -3.10568 -21.7991 88.8596
lradius 60.9581
lwrist 5.4209
lhand -13.5236 10.0463
lfingers 7.12502
lthumb 12.5884 39.6471
rfemur -71.4658 -8.48311 18.2274
rtibia 63.1779
rfoot 1088.45 -181.724
rtoes 21.3357
lfemur 0.447623 -7.98167 -27.6505
ltibia 17.6854
lfoot 1429.65 -1.40794
ltoes 2.80726
623
root -33.3189 18.0377 3.4793 1323.65 -87.6018 -1326.48
lowerback 6.51004 -3.60932 -4.21226
upperback -1.13759 -5.09526 1.54271
thorax -4.32034 -2.40389 4.45924
lowerneck -20.8907 -0.7015 -3.49103
upperneck 17.3038 -0.944995 4.65056
head 8.89654 -0.173039 2.03703
rclavicle -3.22031e-014 1.11319e-014
rhumerus -51.6137 -1.79176 -70.6551
rradius 30.5199
rwrist 7.84272
rhand -13.5655 -10.2716
rfingers 7.12502
rthumb 12.548 -39.8748
lclavicle -3.22031e-014 1.11319e-014
lhumerus -1.5106 -22.0061 88.0821
lradius 62.1911
lwrist 5.77001
lhand -13.4856 9.97115
lfingers 7.12502
lthumb 12.6251 39.5696
rfemur -74.1476 -8.4627 18.568
rtibia 63.1813
rfoot 1088.54 -181.671
rtoes 21.6034
lfemur 1.27721 -8.2304 -27.6752
ltibia 17.1314
lfoot 1429.51 -1.34601
ltoes 2.58196
624
root -33.4438 18.0466 3.467 1329.52 -87.7826 -1332.39
lowerback 6.67165 -3.74136 -4.16056
upperback -1.12761 -5.26972 1.65004
thorax -4.37738 -2.48922 4.56961
lowerneck -20.9242 -0.647329 -3.47193
upperneck 17.2298 -0.853175 4.56951
head 8.8722 -0.136708 2.01772
rclavicle 6.01821e-014 -1.43125e-014
rhumerus -52.8125 -1.79968 -69.6161
rradius 30.4995
rwrist 7.91016
rhand -13.343 -10.1942
rfingers 7.12502
rthumb 12.7626 -39.7842
lclavicle 6.01821e-014 -1.43125e-014
lhumerus 0.0651414 -22.1506 87.3033
lradius 63.3486
lwrist 6.01619
lhand -13.4619 9.88601
lfingers 7.12502
lthumb 12.6479 39.4831
rfemur -76.679 -8.38592 18.8587
rtibia 63.4164
rfoot 1088.7 -181.668
rtoes 21.7926
lfemur 2.07302 -8.50421 -27.7222
ltibia 16.6411
lfoot 1429.34 -1.19051
ltoes 2.36786
625
root -33.5693 18.054 3.45496 1335.23 -87.9325 -1338.15
lowerback 6.83865 -3.85352 -4.0929
upperback -1.11973 -5.41639 1.75471
thorax -4.44387 -2.56084 4.66732
lowerneck -20.9514 -0.601864 -3.45913
upperneck 17.1618 -0.773114 4.49307
head 8.84949 -0.105915 1.99949
rclavicle -7.08916e-014 -3.97569e-015
rhumerus -53.9597 -1.80573 -68.583
rradius 30.4348
rwrist 8.00586
rhand -13.1144 -10.1091
rfingers 7.12502
rthumb 12.983 -39.6852
lclavicle -7.08916e-014 -3.97569e-015
lhumerus 1.61942 -22.2322 86.5357
lradius 64.4216
lwrist 6.1502
lhand -13.4299 9.78808
lfingers 7.12502
lthumb 12.6787 39.3832
rfemur -79.0278 -8.25529 19.1049
rtibia 63.8747
rfoot 1088.9 -181.744
rtoes 21.8926
lfemur 2.84823 -8.7911 -27.7783
ltibia 16.2137
lfoot 1429.14 -0.96492
ltoes 2.15053
626
root -33.6948 18.0598 3.44307 1340.65 -88.0632 -1343.62
lowerback 7.02569 -3.94864 -4.01019
upperback -1.10584 -5.53948 1.85755
thorax -4.51921 -2.62098 4.7549
lowerneck -20.9923 -0.561344 -3.45032
upperneck 17.1022 -0.700703 4.42577
head 8.83257 -0.0778227 1.98422
rclavicle -7.88927e-015 3.18055e-015
rhumerus -55.0403 -1.80503 -67.5711
rradius 30.3245
rwrist 8.12937
rhand -12.9016 -9.99847
rfingers 7.12502
rthumb 13.188 -39.5614
lclavicle -7.88927e-015 3.18055e-015
lhumerus 3.14634 -22.2506 85.7868
lradius 65.4142
lwrist 6.17679
lhand -13.3961 9.67103
lfingers 7.12502
lthumb 12.7114 39.2642
rfemur -81.1688 -8.07818 19.313
rtibia 64.5277
rfoot 1089.13 -181.91
rtoes 21.8301
lfemur 3.61422 -9.08045 -27.8352
ltibia 15.8427
lfoot 1428.93 -0.694048
ltoes 1.95068
